<svg width="96" height="96" viewBox="0 0 480 480" fill="none" xmlns="http://www.w3.org/2000/svg">
<rect width="480" height="480" fill="#2B4B7F"/>
<rect x="12.5" y="12.5" width="455" height="455" stroke="url(#paint0_linear_0_1)" stroke-width="25"/>
<g filter="url(#filter0_d_0_1)">
<path d="M439.5 73.5L384.5 222L450 397H378.5L330.5 269H308V397H238V73.5H308V209H325L375.5 73.5H439.5Z" fill="url(#paint1_linear_0_1)"/>
</g>
<g filter="url(#filter1_d_0_1)">
<path d="M148.5 73.5H218.5V336C218.5 380 197.833 402 156.5 402H98.5C57.1667 402 36.5 380 36.5 336V295.5H103V344C103 346.667 103.833 349 105.5 351C107.5 353 109.833 354 112.5 354H139C141.667 354 143.833 353 145.5 351C147.5 349 148.5 346.667 148.5 344V73.5Z" fill="url(#paint2_linear_0_1)"/>
</g>
<defs>
<filter id="filter0_d_0_1" x="234" y="73.5" width="220" height="331.5" filterUnits="userSpaceOnUse" color-interpolation-filters="sRGB">
<feFlood flood-opacity="0" result="BackgroundImageFix"/>
<feColorMatrix in="SourceAlpha" type="matrix" values="0 0 0 0 0 0 0 0 0 0 0 0 0 0 0 0 0 0 127 0" result="hardAlpha"/>
<feOffset dy="4"/>
<feGaussianBlur stdDeviation="2"/>
<feComposite in2="hardAlpha" operator="out"/>
<feColorMatrix type="matrix" values="0 0 0 0 0 0 0 0 0 0 0 0 0 0 0 0 0 0 0.25 0"/>
<feBlend mode="normal" in2="BackgroundImageFix" result="effect1_dropShadow_0_1"/>
<feBlend mode="normal" in="SourceGraphic" in2="effect1_dropShadow_0_1" result="shape"/>
</filter>
<filter id="filter1_d_0_1" x="32.5" y="73.5" width="190" height="336.5" filterUnits="userSpaceOnUse" color-interpolation-filters="sRGB">
<feFlood flood-opacity="0" result="BackgroundImageFix"/>
<feColorMatrix in="SourceAlpha" type="matrix" values="0 0 0 0 0 0 0 0 0 0 0 0 0 0 0 0 0 0 127 0" result="hardAlpha"/>
<feOffset dy="4"/>
<feGaussianBlur stdDeviation="2"/>
<feComposite in2="hardAlpha" operator="out"/>
<feColorMatrix type="matrix" values="0 0 0 0 0 0 0 0 0 0 0 0 0 0 0 0 0 0 0.25 0"/>
<feBlend mode="normal" in2="BackgroundImageFix" result="effect1_dropShadow_0_1"/>
<feBlend mode="normal" in="SourceGraphic" in2="effect1_dropShadow_0_1" result="shape"/>
</filter>
<linearGradient id="paint0_linear_0_1" x1="240" y1="0" x2="240" y2="480" gradientUnits="userSpaceOnUse">
<stop stop-color="#82F3CF"/>
<stop offset="1" stop-color="#15243C"/>
</linearGradient>
<linearGradient id="paint1_linear_0_1" x1="311" y1="-34" x2="311" y2="1245" gradientUnits="userSpaceOnUse">
<stop offset="0.215" stop-color="#82F3CF"/>
<stop offset="0.435" stop-color="#2B4B7F"/>
</linearGradient>
<linearGradient id="paint2_linear_0_1" x1="129" y1="-34" x2="129" y2="1245" gradientUnits="userSpaceOnUse">
<stop offset="0.215" stop-color="#82F3CF"/>
<stop offset="0.435" stop-color="#2B4B7F"/>
</linearGradient>
</defs>
</svg>
